<svg xmlns="http://www.w3.org/2000/svg" xmlns:xlink="http://www.w3.org/1999/xlink" id="Layer_1" x="0px" y="0px" width="2125.98px" height="1162.2px" viewBox="0 0 2125.98 1162.2" xml:space="preserve"><g>	<g>		<path fill-rule="evenodd" clip-rule="evenodd" fill="#424243" d="M1219.042,167.521c1.441-22.006,13.846-37.966,22.801-53.28   c9.692-16.576,18.933-32.331,27.359-48.48c12.922-24.763,26.149-50.057,58.08-55.68c10.613-1.869,22.795-2.029,36-1.92   c0.333,0.547,1.671,0.089,2.4,0.24c0.8,0,1.601,0,2.4,0c8.54,0.18,16.646,0.793,25.439,0.72c0.727,0.554,2.476,0.085,3.601,0.24   c85.918,0.16,172.484-0.32,258,0.24c-29.66,54.63-60.794,108.339-91.2,162.48c-45.586,81.171-92.259,161.64-137.76,242.88   c-45.394,81.047-91.782,161.758-137.04,243.12C1157.154,443.058,1026.576,225.493,896.482,9.36c3.186,0.094,6.191,0.368,9.6,0.24   c0.411,0.549,1.832,0.088,2.64,0.24c1.36,0,2.72,0,4.08,0c3.6,0,7.2,0,10.8,0c1.521,0,3.04,0,4.56,0   c0.966-0.154,2.552,0.312,3.12-0.24c1.68,0,3.36,0,5.04,0c1.363-0.157,3.355,0.316,4.32-0.24c9.36,0,18.159-0.562,27.36-0.72   c0.96,0,1.92,0,2.88,0c0.887-0.153,2.391,0.311,2.88-0.24c6.8,0,13.6,0,20.4,0c0.411,0.549,1.832,0.088,2.64,0.24   c14.847,0.006,27.037,1.436,36.96,6.24c19.123,9.257,29.525,28.037,40.32,46.08c69.782,116.637,141.014,234.155,211.2,350.161   c40.001-68.793,78.128-138.708,117.601-208.081c9.813-17.246,19.515-34.489,29.28-52.08c3.242-5.84,7.317-11.318,9.359-17.76   c-0.57-0.398-2.789-0.398-3.359,0c-6.544-0.709-11.803-0.561-18.48,0c-1.439,0-2.88,0-4.319,0   c-12.344-1.177-26.456-0.584-39.841-0.72c-8.372,13.2-16.645,26.848-24.479,40.8c-23.286,41.465-47.266,83.358-71.761,124.081   c-17.038-30-31.876-60.385-49.2-89.76c-5.858-9.936-10.379-21.2-11.04-35.28C1219.042,170.721,1219.042,169.121,1219.042,167.521z   "></path>		<path fill-rule="evenodd" clip-rule="evenodd" fill="#E8A086" d="M1363.282,8.16c0.8,0,1.601,0,2.4,0c0,0.08,0,0.16,0,0.24   C1364.953,8.25,1363.615,8.708,1363.282,8.16z"></path>		<path fill-rule="evenodd" clip-rule="evenodd" fill="#EED5CC" d="M1365.683,8.4c0-0.08,0-0.16,0-0.24   c0.729,0.15,2.067-0.307,2.4,0.24C1367.283,8.4,1366.482,8.4,1365.683,8.4z"></path>		<path fill-rule="evenodd" clip-rule="evenodd" fill="#EED5CC" d="M968.002,8.64c0.489-0.551,1.993-0.087,2.88-0.24   c0,0.08,0,0.16,0,0.24C969.922,8.64,968.962,8.64,968.002,8.64z"></path>		<path fill-rule="evenodd" clip-rule="evenodd" fill="#E8A086" d="M970.882,8.64c0-0.08,0-0.16,0-0.24c0.96,0,1.92,0,2.88,0   C973.272,8.951,971.769,8.487,970.882,8.64z"></path>		<path fill-rule="evenodd" clip-rule="evenodd" fill="#E8A086" d="M994.162,8.4c0.808,0.152,2.229-0.31,2.64,0.24   C995.994,8.488,994.573,8.949,994.162,8.4z"></path>		<path fill-rule="evenodd" clip-rule="evenodd" fill="#E8A086" d="M1393.522,9.12c1.2,0,2.4,0,3.601,0c0,0.08,0,0.16,0,0.24   C1395.998,9.205,1394.249,9.674,1393.522,9.12z"></path>		<path fill-rule="evenodd" clip-rule="evenodd" fill="#E8A086" d="M906.082,9.6c0.88,0,1.76,0,2.64,0c0,0.08,0,0.16,0,0.24   C907.914,9.688,906.493,10.149,906.082,9.6z"></path>		<path fill-rule="evenodd" clip-rule="evenodd" fill="#EED5CC" d="M908.722,9.84c0-0.08,0-0.16,0-0.24   c1.284,0.157,3.195-0.315,4.08,0.24C911.442,9.84,910.082,9.84,908.722,9.84z"></path>		<path fill-rule="evenodd" clip-rule="evenodd" fill="#EED5CC" d="M923.602,9.84c1.044-0.556,3.117-0.083,4.56-0.24   c0,0.08,0,0.16,0,0.24C926.642,9.84,925.122,9.84,923.602,9.84z"></path>		<path fill-rule="evenodd" clip-rule="evenodd" fill="#E8A086" d="M928.162,9.84c0-0.08,0-0.16,0-0.24c1.04,0,2.08,0,3.12,0   C930.714,10.152,929.128,9.686,928.162,9.84z"></path>		<path fill-rule="evenodd" clip-rule="evenodd" fill="#E8A086" d="M1438.163,133.2c0.57-0.398,2.789-0.398,3.359,0   C1440.402,133.2,1439.283,133.2,1438.163,133.2z"></path>		<path fill-rule="evenodd" clip-rule="evenodd" fill="#EED5CC" d="M1415.363,133.2c1.439,0,2.88,0,4.319,0   C1418.796,133.6,1416.25,133.6,1415.363,133.2z"></path>		<path fill-rule="evenodd" clip-rule="evenodd" fill="#EED5CC" d="M1219.042,167.521c0,1.6,0,3.2,0,4.8   C1218.644,171.275,1218.644,168.566,1219.042,167.521z"></path>		<path fill-rule="evenodd" clip-rule="evenodd" fill="#EED5CC" d="M909.682,492.001c0.398,0.336,0.398,2.304,0,2.64   C909.682,493.761,909.682,492.881,909.682,492.001z"></path>		<path fill-rule="evenodd" clip-rule="evenodd" fill="#EED5CC" d="M707.361,532.321c0.333-0.547,1.67-0.089,2.4-0.24   c0,0.08,0,0.16,0,0.24C708.961,532.321,708.161,532.321,707.361,532.321z"></path>		<path fill-rule="evenodd" clip-rule="evenodd" fill="#E8A086" d="M709.761,532.321c0-0.08,0-0.16,0-0.24c0.8,0,1.6,0,2.4,0   c0,0.08,0,0.16,0,0.24C711.361,532.321,710.562,532.321,709.761,532.321z"></path>		<path fill-rule="evenodd" clip-rule="evenodd" fill="#EED5CC" d="M712.161,532.321c0-0.08,0-0.16,0-0.24   c0.729,0.151,2.067-0.307,2.4,0.24C713.761,532.321,712.961,532.321,712.161,532.321z"></path>		<path fill-rule="evenodd" clip-rule="evenodd" fill="#EE6B3C" d="M1202.723,655.682c3.921-0.4,9.519-0.4,13.439,0   C1211.683,655.682,1207.202,655.682,1202.723,655.682z"></path>		<path fill-rule="evenodd" clip-rule="evenodd" fill="#EE6B3C" d="M1191.202,655.922c0.333-0.548,1.671-0.09,2.4-0.24   c0,0.08,0,0.16,0,0.24C1192.803,655.922,1192.002,655.922,1191.202,655.922z"></path>		<path fill-rule="evenodd" clip-rule="evenodd" fill="#E8A086" d="M1193.603,655.922c0-0.08,0-0.16,0-0.24c0.8,0,1.6,0,2.399,0   c0,0.08,0,0.16,0,0.24C1195.202,655.922,1194.402,655.922,1193.603,655.922z"></path>		<path fill-rule="evenodd" clip-rule="evenodd" fill="#EED5CC" d="M1196.002,655.922c0-0.08,0-0.16,0-0.24c0.96,0,1.92,0,2.881,0   C1198.393,656.232,1196.889,655.769,1196.002,655.922z"></path>		<path fill-rule="evenodd" clip-rule="evenodd" fill="#E8A086" d="M722.241,656.401c0-0.08,0-0.16,0-0.24c1.2,0,2.4,0,3.6,0   c0,0.08,0,0.16,0,0.24C724.642,656.401,723.441,656.401,722.241,656.401z"></path>		<path fill-rule="evenodd" clip-rule="evenodd" fill="#EE6B3C" d="M725.841,656.401c0-0.08,0-0.16,0-0.24   c0.808,0.152,2.229-0.309,2.64,0.24C727.602,656.401,726.722,656.401,725.841,656.401z"></path>		<path fill-rule="evenodd" clip-rule="evenodd" fill="#E8A086" d="M752.001,657.121c-0.729-0.15-2.067,0.308-2.4-0.239   c0.8,0,1.6,0,2.4,0C752.001,656.961,752.001,657.042,752.001,657.121z"></path>		<path fill-rule="evenodd" clip-rule="evenodd" fill="#EE6B3C" d="M752.001,657.121c0-0.079,0-0.16,0-0.239   c0.729,0.15,2.067-0.308,2.4,0.239C753.602,657.121,752.801,657.121,752.001,657.121z"></path>		<path fill-rule="evenodd" clip-rule="evenodd" fill="#EE6B3C" d="M1135.282,657.121c-0.887-0.152-2.391,0.312-2.88-0.239   C1133.289,657.034,1134.793,656.57,1135.282,657.121z"></path>		<path fill-rule="evenodd" clip-rule="evenodd" fill="#EE6B3C" d="M1151.362,657.121c0.647-0.553,2.314-0.085,3.36-0.239   c0,0.079,0,0.16,0,0.239C1153.603,657.121,1152.482,657.121,1151.362,657.121z"></path>		<path fill-rule="evenodd" clip-rule="evenodd" fill="#E8A086" d="M1154.723,657.121c0-0.079,0-0.16,0-0.239c0.96,0,1.92,0,2.88,0   c0,0.079,0,0.16,0,0.239C1156.643,657.121,1155.683,657.121,1154.723,657.121z"></path>		<path fill-rule="evenodd" clip-rule="evenodd" fill="#EED5CC" d="M1157.603,657.121c0-0.079,0-0.16,0-0.239c0.8,0,1.6,0,2.399,0   C1159.67,657.429,1158.332,656.971,1157.603,657.121z"></path>		<path fill-rule="evenodd" clip-rule="evenodd" fill="#EED5CC" d="M757.042,657.121c1.04,0,2.08,0,3.12,0c0,0.08,0,0.16,0,0.24   C759.195,657.207,757.609,657.674,757.042,657.121z"></path>		<path fill-rule="evenodd" clip-rule="evenodd" fill="#E8A086" d="M760.162,657.361c0-0.08,0-0.16,0-0.24c1.68,0,3.36,0,5.04,0   c0,0.08,0,0.16,0,0.24C763.521,657.361,761.841,657.361,760.162,657.361z"></path>		<path fill-rule="evenodd" clip-rule="evenodd" fill="#EE6B3C" d="M765.202,657.361c0-0.08,0-0.16,0-0.24c2.56,0,5.12,0,7.68,0   c0,0.08,0,0.16,0,0.24C770.321,657.361,767.762,657.361,765.202,657.361z"></path>		<path fill-rule="evenodd" clip-rule="evenodd" fill="#E8A086" d="M772.881,657.361c0-0.08,0-0.16,0-0.24c1.36,0,2.72,0,4.08,0   c0,0.08,0,0.16,0,0.24C775.602,657.361,774.242,657.361,772.881,657.361z"></path>		<path fill-rule="evenodd" clip-rule="evenodd" fill="#EED5CC" d="M776.961,657.361c0-0.08,0-0.16,0-0.24c0.8,0,1.6,0,2.4,0   C779.029,657.669,777.691,657.211,776.961,657.361z"></path>		<path fill-rule="evenodd" clip-rule="evenodd" fill="#EED5CC" d="M1140.322,657.121c1.84,0,3.68,0,5.52,0   C1144.558,657.521,1141.606,657.521,1140.322,657.121z"></path>		<path fill-rule="evenodd" clip-rule="evenodd" fill="#E8A086" d="M1378.883,809.762c0.56,72.722,0.08,146.479,0.24,219.601   c-0.08,0-0.16,0-0.24,0C1378.883,956.157,1378.883,882.964,1378.883,809.762z"></path>		<path fill-rule="evenodd" clip-rule="evenodd" fill="#EED5CC" d="M135.92,852.722c18.96-0.399,39.6-0.399,58.56,0   C174.96,852.722,155.44,852.722,135.92,852.722z"></path>		<path fill-rule="evenodd" clip-rule="evenodd" fill="#EE6B3C" d="M697.042,905.042c0.726-0.554,2.475-0.085,3.6-0.24   C699.915,905.355,698.166,904.887,697.042,905.042z"></path>		<path fill-rule="evenodd" clip-rule="evenodd" fill="#EE6B3C" d="M703.042,904.802c1.125,0.155,2.874-0.313,3.6,0.24   C705.517,904.887,703.768,905.355,703.042,904.802z"></path>		<path fill-rule="evenodd" clip-rule="evenodd" fill="#EE6B3C" d="M965.842,905.042c0.726-0.554,2.476-0.085,3.6-0.24   C968.716,905.355,966.966,904.887,965.842,905.042z"></path>		<path fill-rule="evenodd" clip-rule="evenodd" fill="#EE6B3C" d="M971.602,904.802c1.045,0.155,2.713-0.313,3.36,0.24   C973.917,904.887,972.249,905.354,971.602,904.802z"></path>		<path fill-rule="evenodd" clip-rule="evenodd" fill="#EE6B3C" d="M1244.723,905.042c0.567-0.552,2.154-0.086,3.12-0.24   C1247.274,905.354,1245.688,904.888,1244.723,905.042z"></path>		<path fill-rule="evenodd" clip-rule="evenodd" fill="#EE6B3C" d="M1249.763,904.802c0.966,0.154,2.552-0.312,3.12,0.24   C1251.916,904.888,1250.33,905.354,1249.763,904.802z"></path>		<path fill-rule="evenodd" clip-rule="evenodd" fill="#EE6B3C" d="M1836.084,905.042c0.646-0.553,2.314-0.085,3.359-0.24   C1838.797,905.354,1837.129,904.887,1836.084,905.042z"></path>		<path fill-rule="evenodd" clip-rule="evenodd" fill="#EE6B3C" d="M1841.604,904.802c0.887,0.153,2.391-0.311,2.88,0.24   C1843.597,904.889,1842.093,905.353,1841.604,904.802z"></path>		<path fill-rule="evenodd" clip-rule="evenodd" fill="#EE6B3C" d="M1997.604,905.042c0.489-0.551,1.993-0.087,2.881-0.24   C1999.995,905.353,1998.49,904.889,1997.604,905.042z"></path>		<path fill-rule="evenodd" clip-rule="evenodd" fill="#EE6B3C" d="M2002.404,904.802c1.045,0.155,2.713-0.313,3.359,0.24   C2004.719,904.887,2003.051,905.354,2002.404,904.802z"></path>		<path fill-rule="evenodd" clip-rule="evenodd" fill="#EE6B3C" d="M308.241,907.442c18.88-0.4,39.44-0.4,58.32,0   C347.121,907.442,327.681,907.442,308.241,907.442z"></path>		<path fill-rule="evenodd" clip-rule="evenodd" fill="#EE6B3C" d="M512.721,907.442c15.636-0.437,34.235-0.239,51.36-0.24   c2.494,0,7.062-0.34,6.96,0.479C552.081,907.122,532.081,907.602,512.721,907.442z"></path>		<path fill-rule="evenodd" clip-rule="evenodd" fill="#E8A086" d="M1433.603,907.202c0,0.08,0,0.16,0,0.24   c0,41.438,0,82.881,0,124.32c-0.08,0-0.159,0-0.239,0C1433.522,990.322,1433.043,948.243,1433.603,907.202z"></path>		<path fill-rule="evenodd" clip-rule="evenodd" fill="#EE6B3C" d="M1433.603,907.442c0-0.08,0-0.16,0-0.24c19.44,0,38.88,0,58.32,0   c0,0.08,0,0.16,0,0.24C1472.482,907.442,1453.043,907.442,1433.603,907.442z"></path>		<path fill-rule="evenodd" clip-rule="evenodd" fill="#EE6B3C" d="M1613.843,907.442c18.96-0.4,39.601-0.4,58.561,0   C1652.883,907.442,1633.363,907.442,1613.843,907.442z"></path>		<path fill-rule="evenodd" clip-rule="evenodd" fill="#EE6B3C" d="M968.962,959.522c0.414-0.398,2.466-0.398,2.88,0   C970.882,959.522,969.922,959.522,968.962,959.522z"></path>		<path fill-rule="evenodd" clip-rule="evenodd" fill="#EE6B3C" d="M1254.082,959.522c0.492-0.398,2.628-0.398,3.12,0   C1256.162,959.522,1255.122,959.522,1254.082,959.522z"></path>		<path fill-rule="evenodd" clip-rule="evenodd" fill="#EE6B3C" d="M1839.203,959.522c0.337-0.398,2.305-0.398,2.641,0   C1840.964,959.522,1840.084,959.522,1839.203,959.522z"></path>		<path fill-rule="evenodd" clip-rule="evenodd" fill="#EE6B3C" d="M2000.004,959.522c0.336-0.398,2.304-0.398,2.64,0   C2001.764,959.522,2000.884,959.522,2000.004,959.522z"></path>		<path fill-rule="evenodd" clip-rule="evenodd" fill="#E8A086" d="M1730.963,1151.042c-0.399-44.639-0.399-90.961,0-135.6   C1730.963,1060.642,1730.963,1105.843,1730.963,1151.042z"></path>		<path fill-rule="evenodd" clip-rule="evenodd" fill="#EE6B3C" d="M2110.884,1015.442c0.08,0,0.161,0,0.24,0   c0,45.199,0,90.401,0,135.6c-0.079,0-0.16,0-0.24,0C2110.884,1105.844,2110.884,1060.642,2110.884,1015.442z"></path>		<path fill-rule="evenodd" clip-rule="evenodd" fill="#EE6B3C" d="M1950.324,1015.683c0,1.04,0,2.079,0,3.119   c-0.08,0-0.16,0-0.24,0C1950.238,1017.836,1949.771,1016.25,1950.324,1015.683z"></path>		<path fill-rule="evenodd" clip-rule="evenodd" fill="#EED5CC" d="M1891.523,1018.322c0.08,0,0.16,0,0.24,0   c0,44.241,0,88.479,0,132.72C1891.203,1107.281,1891.684,1062.482,1891.523,1018.322z"></path>		<path fill-rule="evenodd" clip-rule="evenodd" fill="#E8A086" d="M1950.084,1018.802c0.08,0,0.16,0,0.24,0   c-0.16,44.002,0.319,88.64-0.24,132.24C1950.084,1106.962,1950.084,1062.883,1950.084,1018.802z"></path>		<path fill-rule="evenodd" clip-rule="evenodd" fill="#EED5CC" d="M851.122,1024.322c0,1.04,0,2.08,0,3.12c-0.08,0-0.16,0-0.24,0   C851.036,1026.477,850.57,1024.891,851.122,1024.322z"></path>		<path fill-rule="evenodd" clip-rule="evenodd" fill="#E8A086" d="M577.521,1026.962c0.151-0.729-0.307-2.067,0.24-2.399   c0,0.8,0,1.6,0,2.399C577.681,1026.962,577.601,1026.962,577.521,1026.962z"></path>		<path fill-rule="evenodd" clip-rule="evenodd" fill="#EE6B3C" d="M909.682,1024.802c0,0.801,0,1.601,0,2.4c-0.08,0-0.16,0-0.24,0   C909.592,1026.473,909.135,1025.135,909.682,1024.802z"></path>		<path fill-rule="evenodd" clip-rule="evenodd" fill="#E8A086" d="M1130.242,1027.442c0.152-0.809-0.31-2.229,0.24-2.641   c0,0.881,0,1.761,0,2.641C1130.402,1027.442,1130.322,1027.442,1130.242,1027.442z"></path>		<path fill-rule="evenodd" clip-rule="evenodd" fill="#EE6B3C" d="M1320.322,1024.802c0.551,0.489,0.087,1.993,0.24,2.881   c-0.08,0-0.16,0-0.24,0C1320.322,1026.723,1320.322,1025.762,1320.322,1024.802z"></path>		<path fill-rule="evenodd" clip-rule="evenodd" fill="#EE6B3C" d="M577.521,1026.962c0.08,0,0.16,0,0.24,0c0,2.08,0,4.16,0,6.24   c-0.08,0-0.16,0-0.24,0C577.521,1031.122,577.521,1029.042,577.521,1026.962z"></path>		<path fill-rule="evenodd" clip-rule="evenodd" fill="#E8A086" d="M909.442,1027.202c0.08,0,0.16,0,0.24,0   c-0.16,41.2,0.32,83.041-0.24,123.84C909.442,1109.763,909.442,1068.482,909.442,1027.202z"></path>		<path fill-rule="evenodd" clip-rule="evenodd" fill="#E8A086" d="M850.882,1027.442c0.08,0,0.16,0,0.24,0c0,41.199,0,82.4,0,123.6   C850.562,1110.322,851.042,1068.563,850.882,1027.442z"></path>		<path fill-rule="evenodd" clip-rule="evenodd" fill="#EE6B3C" d="M1130.242,1027.442c0.08,0,0.16,0,0.24,0c0,1.439,0,2.88,0,4.32   c-0.08,0-0.16,0-0.24,0C1130.242,1030.322,1130.242,1028.882,1130.242,1027.442z"></path>		<path fill-rule="evenodd" clip-rule="evenodd" fill="#E8A086" d="M1320.322,1027.683c0.08,0,0.16,0,0.24,0c0,0.96,0,1.92,0,2.88   c-0.08,0-0.16,0-0.24,0C1320.322,1029.603,1320.322,1028.643,1320.322,1027.683z"></path>		<path fill-rule="evenodd" clip-rule="evenodd" fill="#EED5CC" d="M1378.883,1029.362c0.08,0,0.16,0,0.24,0   c-0.157,1.363,0.315,3.355-0.24,4.32C1378.883,1032.242,1378.883,1030.802,1378.883,1029.362z"></path>		<path fill-rule="evenodd" clip-rule="evenodd" fill="#EE6B3C" d="M1320.322,1030.563c0.08,0,0.16,0,0.24,0   c-0.154,0.966,0.313,2.552-0.24,3.12C1320.322,1032.643,1320.322,1031.603,1320.322,1030.563z"></path>		<path fill-rule="evenodd" clip-rule="evenodd" fill="#E8A086" d="M1130.242,1031.763c0.08,0,0.16,0,0.24,0c0,0.88,0,1.76,0,2.64   C1129.933,1033.991,1130.395,1032.57,1130.242,1031.763z"></path>		<path fill-rule="evenodd" clip-rule="evenodd" fill="#EED5CC" d="M1433.363,1031.763c0.08,0,0.159,0,0.239,0c0,0.88,0,1.76,0,2.64   C1433.054,1033.991,1433.515,1032.57,1433.363,1031.763z"></path>		<path fill-rule="evenodd" clip-rule="evenodd" fill="#EE6B3C" d="M1672.403,1032.002c-0.15,0.729,0.308,2.067-0.24,2.4   C1672.313,1033.673,1671.855,1032.335,1672.403,1032.002z"></path>		<path fill-rule="evenodd" clip-rule="evenodd" fill="#E8A086" d="M577.521,1033.202c0.08,0,0.16,0,0.24,0c0,0.8,0,1.6,0,2.4   C577.214,1035.27,577.672,1033.932,577.521,1033.202z"></path>		<path fill-rule="evenodd" clip-rule="evenodd" fill="#E8A086" d="M706.161,1065.603c-2.082,0.399-5.837,0.399-7.92,0   C700.881,1065.603,703.521,1065.603,706.161,1065.603z"></path>		<path fill-rule="evenodd" clip-rule="evenodd" fill="#EE6B3C" d="M102.8,1083.843c41.04-0.4,83.76-0.4,124.8,0   C186,1083.843,144.401,1083.843,102.8,1083.843z"></path>		<path fill-rule="evenodd" clip-rule="evenodd" fill="#EE6B3C" d="M707.361,1097.282c3.12,0,6.24,0,9.36,0   C714.16,1097.682,709.923,1097.682,707.361,1097.282z"></path>		<path fill-rule="evenodd" clip-rule="evenodd" fill="#EED5CC" d="M1253.122,1153.442c1.36,0,2.721,0,4.08,0   C1256.395,1153.842,1253.93,1153.842,1253.122,1153.442z"></path>		<path fill-rule="evenodd" clip-rule="evenodd" fill="#EED5CC" d="M1550.963,1153.442c1.28,0,2.561,0,3.84,0   C1554.074,1153.841,1551.691,1153.841,1550.963,1153.442z"></path>		<path fill-rule="evenodd" clip-rule="evenodd" fill="#EED5CC" d="M705.441,1154.162c0-0.08,0-0.159,0-0.239c1.92,0,3.84,0,5.76,0   c0,0.08,0,0.159,0,0.239C709.281,1154.162,707.361,1154.162,705.441,1154.162z"></path>		<path fill-rule="evenodd" clip-rule="evenodd" fill="#E8A086" d="M830.961,640.562c1.26-1.46,2.62-2.82,4.08-4.08   C833.782,637.941,832.422,639.302,830.961,640.562z"></path>		<path fill-rule="evenodd" clip-rule="evenodd" fill="#E8A086" d="M1076.962,637.441c1.38,1.18,2.66,2.46,3.84,3.84   C1079.422,640.102,1078.142,638.821,1076.962,637.441z"></path>		<path fill-rule="evenodd" clip-rule="evenodd" fill="#EE6B3C" d="M2077.044,933.122c1.38,1.18,2.66,2.46,3.84,3.84   C2079.504,935.782,2078.224,934.502,2077.044,933.122z"></path>		<path fill-rule="evenodd" clip-rule="evenodd" fill="#E8A086" d="M1760.243,937.682c1.74-1.939,3.58-3.779,5.521-5.52   C1764.023,934.103,1762.184,935.942,1760.243,937.682z"></path>		<path fill-rule="evenodd" clip-rule="evenodd" fill="#EED5CC" d="M781.762,931.922c1.868,1.332,3.468,2.933,4.8,4.8   C785.02,935.063,783.42,933.464,781.762,931.922z"></path>		<path fill-rule="evenodd" clip-rule="evenodd" fill="#EED5CC" d="M609.921,941.522c1.657-2.184,3.577-4.104,5.76-5.761   C613.706,937.627,611.786,939.547,609.921,941.522z"></path>		<path fill-rule="evenodd" clip-rule="evenodd" fill="#EED5CC" d="M609.441,1117.202c1.444,1.355,2.955,2.646,4.32,4.08   C612.167,1120.076,610.7,1118.743,609.441,1117.202z"></path>		<path fill-rule="evenodd" clip-rule="evenodd" fill="#E94105" d="M473.121,655.922c30.103-54.377,60.216-108.728,91.2-162.48   c11.621-20.162,23.307-40.38,34.32-60.72c1.932-3.569,3.092-6.978,5.52-10.32c2.257-3.106,3.827-6.741,5.76-10.08   c46.632-80.556,92.185-161.718,137.761-242.88c30.38-54.102,61.779-107.649,91.44-162.24c0.08,0,0.16,0,0.24,0   c66.222,107.361,131.113,216.103,196.32,324.48c64.147,106.616,130,212.304,192.96,319.681c1.053,1.795,2.481,3.333,2.399,4.8   c-1.97-0.029-3.604-0.396-5.76-0.239c-1.522-0.558-4.078-0.082-6-0.24c-1.04,0-2.08,0-3.12,0c-3.921-0.4-9.519-0.4-13.439,0   c-1.28,0-2.561,0-3.84,0c-0.961,0-1.921,0-2.881,0c-0.8,0-1.6,0-2.399,0c-0.729,0.15-2.067-0.308-2.4,0.24   c-10.568,0.151-20.716,0.724-31.2,0.96c-0.8,0-1.6,0-2.399,0c-0.96,0-1.92,0-2.88,0c-1.046,0.154-2.713-0.313-3.36,0.239   c-1.84,0-3.68,0-5.521,0c-1.84,0-3.68,0-5.52,0c-1.68,0-3.36,0-5.04,0c-0.489-0.551-1.993-0.087-2.88-0.239   c-23.058,0.657-40.333-4.468-51.601-15.601c-1.18-1.38-2.46-2.66-3.84-3.84c-12.167-14.098-20.936-30.608-30.48-46.56   c-67.26-112.417-136.069-224.802-203.521-336.721c-26.575,45.854-52.181,92.495-78.48,138.72   c-24.566,43.18-49.423,87.001-73.44,130.08c-1.576,2.827-3.674,5.779-4.08,9.12c2.146,1.386,6.435-0.724,8.64,0.72   c1.284,0.399,4.235,0.399,5.52,0c2.157-0.083,3.979-0.501,6.24-0.48c0.8,0,1.6,0,2.4,0c0.8,0,1.6,0,2.4,0c0.8,0,1.6,0,2.4,0   c2.262-0.021,4.083,0.397,6.24,0.48c10.24,0.4,22.16,0.4,32.4,0c31.632-54.845,63.305-109.656,94.8-164.64   c18.391,28.771,32.082,60.606,49.68,89.28c5.966,9.721,12.109,20.125,12,34.56c0,0.88,0,1.76,0,2.64   c-0.198,16.558-7.364,28.48-14.16,39.84c-13.504,22.574-26.515,46.048-38.88,69.36c-6.17,11.632-12.989,22.888-21.6,32.64   c-1.46,1.26-2.82,2.62-4.08,4.08c-11.477,11.243-28.585,16.854-51.6,16.56c-0.8,0-1.6,0-2.4,0c-1.36,0-2.72,0-4.08,0   c-2.56,0-5.12,0-7.68,0c-1.68,0-3.36,0-5.04,0c-1.04,0-2.08,0-3.12,0c-0.88,0-1.76,0-2.64,0c-0.333-0.547-1.67-0.089-2.4-0.239   c-0.8,0-1.6,0-2.4,0c-7.212,0.012-13.863-0.537-21.12-0.48c-0.411-0.549-1.832-0.088-2.64-0.24c-1.2,0-2.4,0-3.6,0   C639.285,656.001,555.676,656.481,473.121,655.922z"></path>		<path fill-rule="evenodd" clip-rule="evenodd" fill="#EE6B3C" d="M1315.282,930.242c1.221,1.02,2.341,2.14,3.36,3.359   C1317.422,932.582,1316.303,931.462,1315.282,930.242z"></path>		<path fill-rule="evenodd" clip-rule="evenodd" fill="#EED5CC" d="M1163.842,940.802c1.143-1.498,2.371-2.909,3.841-4.08   C1166.398,938.078,1165.214,939.534,1163.842,940.802z"></path>		<path fill-rule="evenodd" clip-rule="evenodd" fill="#E8A086" d="M1162.882,1117.202c1.141,0.94,2.181,1.979,3.12,3.12   C1164.862,1119.383,1163.822,1118.343,1162.882,1117.202z"></path>		<path fill-rule="evenodd" clip-rule="evenodd" fill="#EE6B3C" d="M1342.643,1121.522c1.34-1.54,2.779-2.98,4.32-4.32   C1345.623,1118.742,1344.183,1120.183,1342.643,1121.522z"></path>		<path fill-rule="evenodd" clip-rule="evenodd" fill="#EED5CC" d="M883.282,940.322c1.503-2.017,3.263-3.777,5.28-5.28   c-1.67,1.77-3.669,3.21-5.04,5.28C883.442,940.322,883.362,940.322,883.282,940.322z"></path>		<path fill-rule="evenodd" clip-rule="evenodd" fill="#E8A086" d="M1055.362,937.922c0.98,0.779,1.86,1.66,2.64,2.641   C1057.021,939.782,1056.142,938.902,1055.362,937.922z"></path>		<path fill-rule="evenodd" clip-rule="evenodd" fill="#E8A086" d="M1052.242,934.802c0.98,0.78,1.86,1.66,2.64,2.641   C1053.901,936.662,1053.021,935.782,1052.242,934.802z"></path>		<path fill-rule="evenodd" clip-rule="evenodd" fill="#E8A086" d="M1466.482,1118.883c1.301,1.1,2.501,2.3,3.601,3.6   C1468.783,1121.383,1467.583,1120.183,1466.482,1118.883z"></path>		<path fill-rule="evenodd" clip-rule="evenodd" fill="#EE6B3C" d="M1635.443,1122.723c1.34-1.54,2.779-2.98,4.32-4.32   C1638.424,1119.942,1636.983,1121.383,1635.443,1122.723z"></path>		<path fill-rule="evenodd" clip-rule="evenodd" fill="#E8A086" d="M1509.203,1082.162c1.38,1.18,2.66,2.46,3.84,3.84   C1511.663,1084.822,1510.383,1083.543,1509.203,1082.162z"></path>		<path fill-rule="evenodd" clip-rule="evenodd" fill="#E8A086" d="M1205.842,1080.482c0.901,0.699,1.701,1.499,2.4,2.399   C1207.342,1082.183,1206.542,1081.383,1205.842,1080.482z"></path>		<path fill-rule="evenodd" clip-rule="evenodd" fill="#EE6B3C" d="M1302.322,1082.882c0.779-0.979,1.66-1.86,2.641-2.64   C1304.183,1081.223,1303.303,1082.103,1302.322,1082.882z"></path>		<path fill-rule="evenodd" clip-rule="evenodd" fill="#EED5CC" d="M1302.322,975.603c0.9,0.699,1.701,1.499,2.4,2.399   C1303.822,977.303,1303.021,976.503,1302.322,975.603z"></path>		<path fill-rule="evenodd" clip-rule="evenodd" fill="#E8A086" d="M652.161,980.882c1.26-1.46,2.62-2.82,4.08-4.08   C654.981,978.263,653.622,979.622,652.161,980.882z"></path>		<path fill-rule="evenodd" clip-rule="evenodd" fill="#EED5CC" d="M936.322,9.6c0.964-0.556,2.957-0.083,4.32-0.24   C939.677,9.916,937.685,9.443,936.322,9.6z"></path>		<path fill-rule="evenodd" clip-rule="evenodd" fill="#EED5CC" d="M1655.123,9.6c-85.516-0.56-172.082-0.08-258-0.24   c0-0.08,0-0.16,0-0.24c43.121,0,86.238,0,129.36,0c36.499,0,75.466,0,113.28,0c4.517,0,13.099-1.065,15.6,0.48   C1655.305,9.564,1655.186,9.629,1655.123,9.6z"></path>		<path fill-rule="evenodd" clip-rule="evenodd" fill="#EED5CC" d="M695.602,532.801c1.84,0,3.68,0,5.52,0   C699.837,533.201,696.886,533.201,695.602,532.801z"></path>		<path fill-rule="evenodd" clip-rule="evenodd" fill="#E8A086" d="M1219.282,655.682c1.922,0.158,4.478-0.317,6,0.24   C1223.36,655.764,1220.805,656.239,1219.282,655.682z"></path>		<path fill-rule="evenodd" clip-rule="evenodd" fill="#E94105" d="M194.48,852.722c40.51,99.33,81.696,199.268,121.68,298.32   c-21.04,0-42.08,0-63.12,0c-8.546-22.333-16.827-44.933-25.44-67.199c-41.04-0.4-83.76-0.4-124.8,0   c-8.332,22.467-16.94,44.66-25.2,67.199c-21.12,0-42.24,0-63.36,0c40.402-99.599,81.262-198.736,121.68-298.32   C155.44,852.722,174.96,852.722,194.48,852.722z M165.44,918.002c-0.668,0.388-2.018,4.205-2.88,6.48   c-13.266,35.021-26.297,70.559-39.12,104.64c27.84-0.16,56.32,0.32,83.76-0.24C193.104,992.099,179.378,954.943,165.44,918.002z"></path>		<path fill-rule="evenodd" clip-rule="evenodd" fill="#E94105" d="M706.642,905.042c33.071,0.929,57.107,10.893,75.12,26.88   c1.658,1.542,3.258,3.142,4.8,4.8c10.03,11.156,17.051,24.073,18.48,43.2c1.449,19.389-4.59,36.1-13.2,48   c-17.126,23.673-47.063,36.238-85.681,37.681c-2.64,0-5.28,0-7.92,0c-24.134-0.506-43.346-7.214-60.24-14.16   c7.429,30.972,31.122,45.678,69.36,45.84c2.562,0.399,6.798,0.399,9.36,0c25.562-1.078,51.552-3.009,71.521-8.88   c-0.001,12.756,0.001,28.023,0,41.04c0,3.849,0.789,9.205,0,12.72c-0.446,1.987-2.881,1.801-5.28,2.4   c-21.981,5.49-45.795,8.489-71.76,9.36c-1.92,0-3.84,0-5.76,0c-40.911-0.528-69.918-12.963-91.68-32.641   c-1.365-1.435-2.875-2.725-4.32-4.08c-18.167-19.593-30.195-45.325-31.68-81.6c0-0.801,0-1.601,0-2.4c0-2.08,0-4.16,0-6.24   c0-0.8,0-1.6,0-2.399c1.459-36.942,13.896-62.904,32.16-83.04c1.865-1.976,3.785-3.896,5.76-5.761   c19.756-17.604,44.833-29.887,81.36-30.72c1.125-0.155,2.874,0.313,3.6-0.24c0.8,0,1.6,0,2.4,0   C703.768,905.355,705.517,904.887,706.642,905.042z M708.562,1008.962c13.741-0.953,26.191-3.307,33.12-11.04   c6.093-6.801,5.912-19.138-0.24-25.68c-8.808-9.367-26.804-11.673-44.4-10.561c-17.6,1.113-31.767,6.02-40.8,15.12   c-1.46,1.26-2.82,2.62-4.08,4.08c-4.315,4.965-8.196,10.364-10.56,17.28c15.732,5.868,33.25,9.95,54,10.8   c0.805,0.555,2.636,0.084,3.84,0.24C702.402,1009.043,706,1009.521,708.562,1008.962z"></path>		<path fill-rule="evenodd" clip-rule="evenodd" fill="#E94105" d="M974.962,905.042c34.89,0.79,58.258,13.102,77.28,29.76   c0.779,0.98,1.659,1.86,2.64,2.641c0.214,0.106,0.43,0.21,0.48,0.479c0.779,0.98,1.659,1.86,2.64,2.641   c18.649,20.75,31.922,49.463,31.92,89.279c-0.001,39.018,0.001,81.474,0,121.2c-19.52,0-39.04,0-58.56,0   c-0.726-40.749,0.967-85.227,0-125.52c-0.474-19.748-6.184-35.912-15.36-47.521c-9.325-11.797-23.915-18.115-44.16-18.479   c-0.414-0.398-2.466-0.398-2.88,0c-40.596,0.924-56.766,26.274-59.28,65.279c-0.547,0.333-0.089,1.671-0.24,2.4   c0,41.28,0,82.561,0,123.84c-19.44,0-38.88,0-58.32,0c0-41.199,0-82.4,0-123.6c0-1.04,0-2.08,0-3.12   c1.482-37.239,13.658-63.782,32.16-84c0.08,0,0.16,0,0.24,0c1.371-2.07,3.37-3.511,5.04-5.28c18.884-16.876,42.391-29.13,77.28-30   c1.125-0.155,2.874,0.313,3.6-0.24c0.72,0,1.44,0,2.16,0C972.249,905.354,973.917,904.887,974.962,905.042z"></path>		<path fill-rule="evenodd" clip-rule="evenodd" fill="#E94105" d="M1844.483,905.042c40.229,1.612,61.235,22.444,76.561,48.96   c15.062-26.78,36.353-47.327,76.56-48.96c0.887-0.153,2.392,0.311,2.881-0.24c0.64,0,1.279,0,1.92,0   c0.646,0.553,2.314,0.085,3.359,0.24c32.373,0.747,53.961,12.278,71.28,28.08c1.18,1.38,2.46,2.66,3.84,3.84   c17.333,18.827,29.038,43.282,30,78.48c0,45.199,0,90.401,0,135.6c-19.359-0.159-39.36,0.32-58.319-0.239c0-0.16,0-0.32,0-0.48   c0-43.76,0-87.521,0-131.28c-0.158-1.842,0.316-4.317-0.24-5.76c-2.751-31.729-15.91-53.051-49.681-53.76   c-0.336-0.398-2.304-0.398-2.64,0c-34.438,0.842-47.562,22.997-49.68,56.16c-0.553,0.567-0.086,2.153-0.24,3.119   c0,44.081,0,88.16,0,132.24c-19.44,0-38.88,0-58.32,0c0-44.24,0-88.479,0-132.72c-0.156-1.284,0.315-3.195-0.24-4.08   c-2.495-32.304-15.632-53.968-49.68-54.72c-0.336-0.398-2.304-0.398-2.641,0c-34.111,0.768-47.262,22.497-49.68,54.96   c-0.56,45.04-0.08,91.119-0.24,136.56c-19.439,0-38.88,0-58.32,0c0-45.199,0-90.4,0-135.6c1.022-34.658,12.461-58.9,29.28-77.761   c1.94-1.739,3.78-3.579,5.521-5.52c17.342-15.138,38.516-26.444,70.32-27.12c1.045-0.155,2.713,0.313,3.359-0.24   c0.721,0,1.44,0,2.16,0C1842.093,905.353,1843.597,904.889,1844.483,905.042z"></path>		<path fill-rule="evenodd" clip-rule="evenodd" fill="#E94105" d="M366.561,907.442c24.377,60.742,48.698,121.544,72.96,182.4   c24.743-60.457,48.743-121.658,73.2-182.4c19.36,0.159,39.36-0.32,58.32,0.239c-33.992,81.212-68.022,162.373-102.24,243.36   c-19.44,0-38.88,0-58.32,0c-34.115-81.169-68.31-162.24-102.24-243.6C327.681,907.442,347.121,907.442,366.561,907.442z"></path>		<path fill-rule="evenodd" clip-rule="evenodd" fill="#E8A086" d="M1320.563,809.762c0,21.04,0,42.08,0,63.12   c-0.157,20.55,0.315,43.179-0.24,62.4C1320.482,893.521,1320.003,851.123,1320.563,809.762z"></path>		<path fill-rule="evenodd" clip-rule="evenodd" fill="#EED5CC" d="M699.441,1008.962c3.04,0,6.08,0,9.12,0   c-2.561,0.56-6.159,0.081-9.12,0.24C699.441,1009.122,699.441,1009.042,699.441,1008.962z"></path>		<path fill-rule="evenodd" clip-rule="evenodd" fill="#E8A086" d="M1491.923,907.202c0.56,41.68,0.08,84.4,0.24,126.48   c-0.561-41.6-0.08-84.241-0.24-126.24C1491.923,907.362,1491.923,907.282,1491.923,907.202z"></path>		<path fill-rule="evenodd" clip-rule="evenodd" fill="#E94105" d="M1378.883,1033.683c-1.394,37.087-13.367,63.592-31.92,83.52   c-1.541,1.34-2.98,2.78-4.32,4.32c-20.451,18.669-46.855,31.386-85.44,31.92c-1.359,0-2.72,0-4.08,0   c-39.65-0.428-66.174-13.987-87.12-33.12c-0.939-1.141-1.979-2.18-3.12-3.12c-18.521-19.879-30.931-45.867-32.399-82.8   c0-0.88,0-1.76,0-2.64c0-1.44,0-2.881,0-4.32c0-0.88,0-1.76,0-2.641c1.458-37.661,14.813-63.427,33.359-84   c1.372-1.268,2.557-2.724,3.841-4.08c19.103-17.137,41.929-30.55,77.04-31.68c0.966-0.154,2.552,0.312,3.12-0.24   c0.64,0,1.279,0,1.92,0c0.567,0.553,2.153,0.086,3.12,0.24c28.543,0.656,47.1,11.3,62.399,25.2c1.021,1.22,2.14,2.34,3.36,3.359   c0.459,0.661,1.019,1.222,1.68,1.681c0.556-19.222,0.083-41.851,0.24-62.4c0-21.04,0-42.08,0-63.12c19.44,0,38.88,0,58.32,0   c0,73.202,0,146.396,0,219.601C1378.883,1030.802,1378.883,1032.242,1378.883,1033.683z M1254.082,959.522   c-41.991,0.967-62.445,23.476-65.04,63.84c-0.399,3.281-0.399,8.238,0,11.52c0.932,19.869,6.777,34.823,16.8,45.601   c0.7,0.9,1.5,1.7,2.4,2.399c10.301,9.38,24.006,15.354,43.2,15.841c2.162,0.399,5.998,0.399,8.16,0   c18.946-0.574,32.474-6.566,42.72-15.841c0.98-0.779,1.86-1.659,2.641-2.64c9.742-10.897,14.87-26.409,15.359-46.56   c0.553-0.568,0.086-2.154,0.24-3.12c0-0.96,0-1.92,0-2.88c-0.153-0.888,0.311-2.392-0.24-2.881   c-0.519-20.281-5.505-36.095-15.6-46.8c-0.699-0.9-1.5-1.7-2.4-2.399c-10.461-9.939-24.935-15.865-45.12-16.08   C1256.71,959.124,1254.574,959.124,1254.082,959.522z"></path>		<path fill-rule="evenodd" clip-rule="evenodd" fill="#E94105" d="M1492.163,1033.683c0.665,21.175,6.984,36.695,17.04,48.479   c1.18,1.381,2.46,2.66,3.84,3.84c8.706,7.534,20.255,12.226,36,12.721c2.002,0.399,5.678,0.399,7.68,0   c19.9-0.65,33.3-7.701,42.48-19.681c8.914-11.63,14.638-27.893,14.64-47.52c0.005-40.073-0.003-83.77,0-124.08   c19.521,0,39.04,0,58.561,0c0,41.52,0,83.04,0,124.56c-0.548,0.333-0.09,1.671-0.24,2.4c-1.333,37.466-13.836,63.765-32.399,84   c-1.541,1.34-2.98,2.78-4.32,4.32c-19.4,17.721-44.049,30.189-80.641,30.72c-1.279,0-2.56,0-3.84,0   c-36.752-0.528-61.329-13.23-80.88-30.96c-1.1-1.3-2.3-2.5-3.601-3.6c-18.784-20.336-31.306-46.936-32.88-84.48   c0-0.88,0-1.76,0-2.64c0-41.439,0-82.882,0-124.32c19.44,0,38.88,0,58.32,0C1492.083,949.441,1491.603,992.083,1492.163,1033.683z   "></path>		<path fill-rule="evenodd" clip-rule="evenodd" fill="#EED5CC" d="M720.801,532.801c10.8,0,21.6,0,32.4,0   C742.961,533.201,731.042,533.201,720.801,532.801z"></path>		<path fill-rule="evenodd" clip-rule="evenodd" fill="#EED5CC" d="M473.121,655.922c82.555,0.56,166.164,0.079,249.12,0.239   c0,0.08,0,0.16,0,0.24c-76.677-0.004-156.188,0.006-233.521,0c-5.133,0-11.842,0.993-15.6,0   C472.894,656.342,472.808,656.024,473.121,655.922z"></path>		<path fill-rule="evenodd" clip-rule="evenodd" fill="#E8A086" d="M2052.324,1013.282c0.557,1.442,0.082,3.918,0.24,5.76   C2052.007,1017.6,2052.482,1015.124,2052.324,1013.282z"></path>		<path fill-rule="evenodd" clip-rule="evenodd" fill="#EED5CC" d="M1189.042,1023.362c0,3.84,0,7.68,0,11.52   C1188.643,1031.601,1188.643,1026.644,1189.042,1023.362z"></path>		<path fill-rule="evenodd" clip-rule="evenodd" fill="#E8A086" d="M695.602,1008.962c1.28,0,2.56,0,3.84,0c0,0.08,0,0.16,0,0.24   C698.237,1009.046,696.407,1009.517,695.602,1008.962z"></path>		<path fill-rule="evenodd" clip-rule="evenodd" fill="#E8A086" d="M1891.523,1014.242c0.556,0.885,0.084,2.796,0.24,4.08   c-0.08,0-0.16,0-0.24,0C1891.523,1016.962,1891.523,1015.603,1891.523,1014.242z"></path>		<path fill-rule="evenodd" clip-rule="evenodd" fill="#E8A086" d="M1789.523,1014.482c0,45.519,0,91.041,0,136.56   c-0.08,0-0.16,0-0.24,0C1789.443,1105.602,1788.964,1059.522,1789.523,1014.482z"></path>		<path fill-rule="evenodd" clip-rule="evenodd" fill="#EE6B3C" d="M1251.442,1098.723c2.72,0,5.44,0,8.16,0   C1257.44,1099.122,1253.604,1099.122,1251.442,1098.723z"></path>		<path fill-rule="evenodd" clip-rule="evenodd" fill="#EE6B3C" d="M1549.043,1098.723c2.561,0,5.12,0,7.68,0   C1554.721,1099.122,1551.045,1099.122,1549.043,1098.723z"></path>	</g></g></svg>